<?xml version="1.0" encoding="iso-8859-1"?>
<!-- Generator: Adobe Illustrator 19.0.0, SVG Export Plug-In . SVG Version: 6.00 Build 0)  -->
<svg version="1.1" id="Capa_1" xmlns="http://www.w3.org/2000/svg" xmlns:xlink="http://www.w3.org/1999/xlink" x="0px" y="0px"
	 viewBox="0 0 56 56" style="enable-background:new 0 0 56 56;" xml:space="preserve">
<g>
	<g>
		<path d="M28,28c-2.426,0-4.77,0.132-7,0.379V15.72l17.316-5.772C38.733,9.81,39.011,9.414,39,8.975
			c-0.012-0.439-0.309-0.82-0.732-0.938l-18-5c-0.037-0.01-0.074,0.001-0.111-0.005C20.103,3.023,20.055,3,20,3
			c-0.036,0-0.067,0.017-0.103,0.021c-0.059,0.006-0.112,0.018-0.168,0.034c-0.089,0.026-0.169,0.062-0.246,0.11
			c-0.028,0.017-0.062,0.019-0.088,0.039c-0.016,0.012-0.022,0.032-0.037,0.045c-0.077,0.066-0.137,0.145-0.191,0.232
			c-0.022,0.035-0.051,0.063-0.068,0.101C19.039,3.71,19,3.849,19,4v11v13.64C7.846,30.278,0,34.903,0,40.5C0,47.51,12.299,53,28,53
			s28-5.49,28-12.5S43.701,28,28,28z M21,13.612V5.315l13.577,3.771L21,13.612z M28,51C13.906,51,2,46.191,2,40.5
			c0-4.421,7.186-8.308,17-9.824v3.9c-2.363,0.927-4,2.883-4,5.147c0,3.155,3.172,5.722,7.071,5.722s7.071-2.566,7.071-5.722
			S25.971,34,22.071,34c-0.365,0-0.721,0.029-1.071,0.073v-3.666C23.238,30.144,25.585,30,28,30c14.094,0,26,4.809,26,10.5
			S42.094,51,28,51z M20,40c0.553,0,1-0.447,1-1v-2.913C21.346,36.032,21.703,36,22.071,36c2.796,0,5.071,1.67,5.071,3.723
			c0,2.052-2.275,3.722-5.071,3.722S17,41.774,17,39.723c0-1.202,0.793-2.261,2-2.942V39C19,39.553,19.447,40,20,40z"/>
		<path d="M41,39c-2.206,0-4,1.794-4,4s1.794,4,4,4s4-1.794,4-4S43.206,39,41,39z M41,45c-1.103,0-2-0.897-2-2s0.897-2,2-2
			s2,0.897,2,2S42.103,45,41,45z"/>
	</g>
</g>
<g>
</g>
<g>
</g>
<g>
</g>
<g>
</g>
<g>
</g>
<g>
</g>
<g>
</g>
<g>
</g>
<g>
</g>
<g>
</g>
<g>
</g>
<g>
</g>
<g>
</g>
<g>
</g>
<g>
</g>
</svg>
